<svg width="131" height="131" viewBox="0 0 131 131" fill="none" xmlns="http://www.w3.org/2000/svg">
<g id="more_vert_24px">
<path id="icon/navigation/more_vert_24px" fill-rule="evenodd" clip-rule="evenodd" d="M65.5 43.6667C71.5042 43.6667 76.4167 38.7542 76.4167 32.75C76.4167 26.7459 71.5042 21.8334 65.5 21.8334C59.4958 21.8334 54.5833 26.7459 54.5833 32.75C54.5833 38.7542 59.4958 43.6667 65.5 43.6667ZM65.5 54.5834C59.4958 54.5834 54.5833 59.4959 54.5833 65.5C54.5833 71.5042 59.4958 76.4167 65.5 76.4167C71.5042 76.4167 76.4167 71.5042 76.4167 65.5C76.4167 59.4959 71.5042 54.5834 65.5 54.5834ZM54.5833 98.25C54.5833 92.2459 59.4958 87.3334 65.5 87.3334C71.5042 87.3334 76.4167 92.2459 76.4167 98.25C76.4167 104.254 71.5042 109.167 65.5 109.167C59.4958 109.167 54.5833 104.254 54.5833 98.25Z" fill="black" fill-opacity="0.54"/>
</g>
</svg>
